<svg width="500" height="505" viewBox="0 0 500 505" fill="none" xmlns="http://www.w3.org/2000/svg">
<g clip-path="url(#clip0)">
<rect width="500" height="505" fill="white"/>
<path d="M488 15H12V485H488V15Z" stroke="black" stroke-opacity="0.85" stroke-width="30"/>
<path d="M205.332 373.453H184.664V429.365H146.483V270.985H208.813C227.595 270.985 242.28 275.154 252.868 283.494C263.455 291.834 268.749 303.618 268.749 318.847C268.749 329.87 266.501 339.007 262.005 346.259C257.581 353.511 250.619 359.384 241.12 363.881L274.188 427.733V429.365H233.287L205.332 373.453ZM184.664 343.974H208.813C216.064 343.974 221.503 342.089 225.13 338.318C228.828 334.474 230.677 329.144 230.677 322.327C230.677 315.511 228.828 310.181 225.13 306.337C221.431 302.421 215.992 300.463 208.813 300.463H184.664V343.974ZM421.473 409.784C415.599 416.311 407.005 421.569 395.693 425.558C384.38 429.546 371.979 431.54 358.491 431.54C337.75 431.54 321.18 425.195 308.78 412.504C296.378 399.813 289.743 382.155 288.873 359.529L288.764 345.824C288.764 330.232 291.52 316.635 297.031 305.032C302.542 293.357 310.411 284.4 320.636 278.164C330.933 271.855 342.827 268.7 356.315 268.7C376.04 268.7 391.342 273.233 402.219 282.297C413.17 291.29 419.551 304.742 421.364 322.654H384.597C383.292 313.807 380.464 307.497 376.113 303.727C371.762 299.956 365.598 298.07 357.62 298.07C348.048 298.07 340.651 302.131 335.43 310.254C330.208 318.376 327.562 329.979 327.489 345.062V354.634C327.489 370.443 330.172 382.337 335.539 390.314C340.978 398.218 349.498 402.17 361.101 402.17C371.036 402.17 378.433 399.958 383.292 395.535V370.951H356.75V344.736H421.473V409.784Z" fill="black" fill-opacity="0.85"/>
</g>
<defs>
<clipPath id="clip0">
<rect width="500" height="505" fill="white"/>
</clipPath>
</defs>
</svg>
