<svg width="45" height="45" viewBox="0 0 45 45" fill="none" xmlns="http://www.w3.org/2000/svg">
<g clip-path="url(#clip0)">
<path d="M16.188 18.719C16.627 18.28 17.114 17.918 17.632 17.632C20.519 16.041 24.221 16.887 26.077 19.701L23.831 21.946C23.187 20.477 21.588 19.641 19.997 19.997C19.398 20.131 18.829 20.43 18.364 20.895L14.06 25.201C12.753 26.508 12.753 28.634 14.06 29.941C15.367 31.248 17.493 31.248 18.8 29.941L20.127 28.614C21.334 29.093 22.628 29.284 23.906 29.189L20.977 32.118C18.466 34.629 14.395 34.629 11.884 32.118C9.37301 29.607 9.37301 25.536 11.884 23.025L16.188 18.719V18.719ZM23.024 11.883L20.095 14.812C21.372 14.716 22.667 14.908 23.874 15.386L25.2 14.06C26.507 12.753 28.633 12.753 29.94 14.06C31.247 15.367 31.247 17.493 29.94 18.8L25.635 23.105C24.324 24.416 22.195 24.405 20.895 23.105C20.592 22.802 20.331 22.425 20.168 22.054L17.922 24.299C18.158 24.657 18.403 24.966 18.718 25.281C19.53 26.093 20.564 26.698 21.754 26.985C23.296 27.356 24.948 27.151 26.367 26.368C26.885 26.082 27.372 25.72 27.811 25.281L32.115 20.976C34.627 18.465 34.627 14.394 32.116 11.883C29.605 9.37299 25.535 9.37299 23.024 11.883V11.883Z" fill="black"/>
</g>
<circle cx="22.5" cy="22.5" r="21" stroke="black" stroke-width="3"/>
<defs>
<clipPath id="clip0">
<rect x="10" y="10" width="24" height="24" fill="white"/>
</clipPath>
</defs>
</svg>
