<?xml version="1.0" standalone="no"?>
<!DOCTYPE svg PUBLIC "-//W3C//DTD SVG 20010904//EN"
 "http://www.w3.org/TR/2001/REC-SVG-20010904/DTD/svg10.dtd">
<svg version="1.0" xmlns="http://www.w3.org/2000/svg"
 width="180.000000pt" height="161.000000pt" viewBox="0 0 180.000000 161.000000"
 preserveAspectRatio="xMidYMid meet">
<metadata>
Created by potrace 1.15, written by Peter Selinger 2001-2017
</metadata>
<g transform="translate(0.000000,161.000000) scale(0.100000,-0.100000)"
fill="#000000" stroke="none">
<path d="M187 1603 c-15 -14 -6 -58 16 -81 l22 -24 -39 -32 c-34 -29 -37 -35
-27 -54 16 -29 -1 -60 -37 -68 -38 -9 -52 -23 -52 -51 0 -15 -14 -37 -35 -57
-42 -40 -46 -82 -15 -163 10 -28 33 -105 50 -171 34 -138 80 -253 147 -367
172 -297 382 -453 688 -511 180 -34 497 -28 640 12 28 7 66 13 85 13 19 -1 64
7 100 18 61 17 65 20 68 50 3 29 0 32 -32 38 -19 4 -40 4 -46 0 -6 -3 -26 -1
-46 5 -24 8 -39 9 -48 1 -8 -7 -39 -8 -89 -3 l-77 7 26 37 c51 72 -11 82 -84
13 l-48 -44 -60 14 c-184 43 -328 135 -453 290 -128 158 -160 254 -186 560
-16 186 -13 200 43 191 119 -19 122 -19 122 -3 0 30 -59 70 -145 97 -51 16
-135 60 -155 82 -8 9 -41 24 -72 32 -50 14 -58 20 -58 40 0 26 -21 39 -45 30
-8 -4 -27 -3 -41 0 -23 6 -26 11 -21 39 7 48 -7 67 -52 67 -21 0 -41 -3 -44
-7z m477 -302 c3 -5 -4 -20 -15 -35 -24 -30 -88 -51 -217 -71 -48 -7 -94 -16
-103 -20 -10 -4 -19 0 -22 9 -4 10 -1 16 9 16 9 0 14 6 12 13 -6 17 -48 22
-48 5 0 -10 -3 -9 -10 2 -7 11 0 17 33 27 22 7 43 10 46 8 2 -3 -1 -5 -7 -5
-7 0 -12 -5 -12 -11 0 -6 9 -8 23 -3 12 4 33 8 47 9 37 3 40 4 40 15 0 6 -10
10 -22 11 -22 1 -22 1 2 8 14 4 40 11 58 14 27 6 32 4 32 -13 0 -13 7 -20 20
-20 13 0 20 7 20 18 0 10 3 22 7 25 10 10 101 8 107 -2z m-44 -158 c0 -31 -2
-34 -16 -22 -21 17 -34 -3 -34 -53 0 -39 15 -49 38 -26 17 17 26 -14 19 -67
-4 -25 -2 -47 3 -50 6 -3 10 -13 10 -22 0 -11 -6 -14 -21 -10 -19 5 -20 3 -14
-21 3 -15 9 -42 12 -59 5 -35 23 -46 23 -15 0 14 2 15 10 2 15 -24 12 -43 -6
-36 -10 4 -14 1 -11 -6 2 -7 11 -12 20 -12 10 1 17 -10 22 -33 3 -19 9 -41 12
-49 4 -10 0 -12 -11 -8 -20 8 -21 -6 -2 -31 8 -11 12 -25 9 -32 -3 -7 0 -13 6
-13 6 0 11 -10 12 -22 0 -22 1 -22 8 -3 7 18 9 17 19 -10 6 -18 11 -23 11 -12
1 16 2 16 19 -1 9 -9 32 -40 50 -68 18 -28 41 -59 52 -69 11 -10 20 -24 20
-30 0 -28 47 -68 123 -106 45 -22 97 -51 116 -64 19 -14 44 -25 56 -25 12 0
25 -3 29 -7 4 -5 28 -16 54 -26 l47 -17 -52 5 c-29 3 -74 15 -100 26 -59 26
-152 33 -174 13 -14 -12 -18 -12 -34 6 -10 11 -29 20 -42 20 -22 0 -28 13 -24
48 1 7 -10 12 -26 13 -17 1 -21 3 -10 6 9 2 17 8 17 12 0 17 -73 75 -141 111
-41 22 -68 40 -61 40 6 0 12 11 12 24 0 25 -41 66 -65 66 -7 0 -18 7 -25 15
-10 12 -9 16 4 21 25 9 19 47 -11 76 -34 32 -83 43 -83 19 0 -12 -2 -13 -9 -3
-4 7 -14 12 -21 10 -7 -2 -16 10 -21 26 -4 16 -18 39 -29 51 -20 21 -20 23 -3
22 13 -2 18 5 17 20 0 18 2 20 13 11 7 -6 16 -8 20 -5 3 4 12 2 18 -3 9 -8 13
-3 13 17 0 30 -17 54 -61 85 l-29 21 4 -24 c4 -26 -44 -79 -51 -57 -2 7 1 14
7 16 19 6 14 31 -5 27 -10 -2 -21 -4 -25 -4 -4 -1 -9 -13 -11 -28 -3 -21 -4
-18 -6 12 -1 43 -1 43 62 45 10 1 16 7 14 13 -2 7 -13 11 -23 9 -15 -2 -16 -1
-5 6 7 6 10 15 7 21 -5 8 0 8 20 1 32 -13 42 -6 24 15 -11 13 -10 14 4 9 9 -3
16 -1 16 5 0 6 -4 11 -9 11 -6 0 -6 12 0 32 12 44 12 48 -7 48 -11 0 -14 -5
-10 -17 6 -16 6 -16 -12 0 -26 24 -32 21 -22 -12 7 -26 5 -30 -17 -36 -15 -3
-23 -11 -20 -19 4 -9 0 -12 -13 -9 -12 3 -23 -3 -32 -20 -11 -20 -17 -23 -35
-16 -23 8 -32 29 -13 29 6 0 10 7 10 15 0 9 13 18 31 22 39 7 45 23 24 62 -8
17 -14 31 -13 32 2 0 19 2 38 4 20 2 41 12 52 25 10 13 21 20 25 17 3 -4 13
-1 21 5 8 7 29 11 48 9 26 -2 33 1 28 12 -4 11 7 17 43 24 63 12 73 8 73 -34z"/>
</g>
</svg>
