<?xml version="1.0" standalone="no"?>
<!DOCTYPE svg PUBLIC "-//W3C//DTD SVG 20010904//EN"
 "http://www.w3.org/TR/2001/REC-SVG-20010904/DTD/svg10.dtd">
<svg version="1.0" xmlns="http://www.w3.org/2000/svg"
 width="600.000000pt" height="600.000000pt" viewBox="0 0 600.000000 600.000000"
 preserveAspectRatio="xMidYMid meet">
<metadata>
Created by potrace 1.15, written by Peter Selinger 2001-2017
</metadata>
<g transform="translate(0.000000,600.000000) scale(0.100000,-0.100000)"
fill="#000000" stroke="none">
<path d="M2795 5974 c-16 -2 -79 -9 -140 -15 -60 -6 -171 -24 -246 -39 -1165
-240 -2073 -1139 -2323 -2301 -49 -223 -60 -345 -60 -624 0 -279 11 -401 60
-624 248 -1151 1144 -2047 2294 -2295 431 -93 904 -86 1339 20 147 36 410 124
533 180 100 45 293 147 312 165 6 5 17 9 25 9 9 0 198 -99 421 -220 l405 -219
5 607 5 607 71 105 c245 363 406 776 476 1223 19 124 22 181 22 442 0 331 -12
452 -74 702 -35 143 -109 371 -142 436 -131 258 -207 393 -284 509 -482 723
-1232 1193 -2094 1313 -108 15 -536 29 -605 19z m265 -940 c15 -16 183 -269
374 -562 l348 -532 52 -14 c28 -8 254 -67 501 -131 248 -64 513 -133 589 -153
85 -22 149 -44 164 -57 27 -23 43 -89 30 -124 -4 -13 -108 -147 -230 -299
-123 -153 -307 -382 -410 -510 l-188 -233 6 -57 c8 -94 74 -1186 74 -1236 0
-36 -6 -52 -31 -80 -18 -21 -43 -38 -62 -41 -34 -7 -25 -10 -875 313 l-394
149 -376 -149 c-208 -82 -480 -190 -607 -240 -246 -98 -285 -107 -332 -72 -59
44 -58 16 -23 726 17 357 29 655 27 662 -3 8 -188 234 -410 504 -223 269 -413
502 -422 516 -25 38 -15 101 22 137 25 25 100 48 662 201 l635 173 352 555
c226 355 363 562 381 573 41 27 107 18 143 -19z"/>
<path d="M2332 3277 c-60 -34 -73 -111 -26 -166 51 -61 144 -49 179 25 45 95
-60 192 -153 141z"/>
<path d="M3557 3270 c-59 -47 -56 -143 7 -181 46 -28 89 -25 129 11 39 34 49
67 35 116 -18 67 -115 98 -171 54z"/>
<path d="M2804 3065 c-8 -19 19 -91 44 -120 44 -52 84 -70 158 -70 62 0 76 4
112 29 27 18 51 47 68 82 44 91 49 89 -179 92 -171 2 -198 0 -203 -13z"/>
</g>
</svg>
