<?xml version="1.0" encoding="UTF-8" standalone="no"?>
<svg
   xmlns:dc="http://purl.org/dc/elements/1.1/"
   xmlns:cc="http://creativecommons.org/ns#"
   xmlns:rdf="http://www.w3.org/1999/02/22-rdf-syntax-ns#"
   xmlns:svg="http://www.w3.org/2000/svg"
   xmlns="http://www.w3.org/2000/svg"
   viewBox="0 0 1733.3333 1733.3333"
   height="1733.3333"
   width="1733.3333"
   xml:space="preserve"
   id="svg2"
   version="1.1"><metadata
     id="metadata8"><rdf:RDF><cc:Work
         rdf:about=""><dc:format>image/svg+xml</dc:format><dc:type
           rdf:resource="http://purl.org/dc/dcmitype/StillImage" /></cc:Work></rdf:RDF></metadata><defs
     id="defs6"><clipPath
       id="clipPath18"
       clipPathUnits="userSpaceOnUse"><path
         id="path16"
         d="m 301.887,1277.158 c -153.535,0 -278,-124.464 -278,-278 v 0 -699 c 0,-153.535 124.465,-278 278,-278 v 0 h 698.999 c 153.536,0 278,124.465 278,278 v 0 699 c 0,153.536 -124.464,278 -278,278 v 0 z" /></clipPath><linearGradient
       id="linearGradient28"
       spreadMethod="pad"
       gradientTransform="matrix(-237.17799,-1345.1033,-1345.1033,237.17799,769.97559,1322.2101)"
       gradientUnits="userSpaceOnUse"
       y2="0"
       x2="1"
       y1="0"
       x1="0"><stop
         id="stop24"
         offset="0"
         style="stop-opacity:1;stop-color:#faad41" /><stop
         id="stop26"
         offset="1"
         style="stop-opacity:1;stop-color:#ef3e31" /></linearGradient><clipPath
       id="clipPath38"
       clipPathUnits="userSpaceOnUse"><path
         id="path36"
         d="m 300.886,1277.252 c -153.54,0 -277.999,-124.46 -277.999,-278 v 0 -316.409 L 151.746,544.132 c 0,0 0.01,0 0.01,-0.01 v 0 c 1.291,-2.28 167.901,-293.79 518.541,-293.79 v 0 c 158.409,0 204.439,81.23 282.969,81.23 v 0 c 81.231,0 129.97,-81.23 129.97,-81.23 v 0 c 47.391,116.44 -70.399,249.12 -70.399,249.12 v 0 c 0,0 134.039,310.03 -280.241,591.64 v 0 c -0.01,0.01 -0.01,0.02 -0.019,0.02 v 0 l -183.551,186.14 z" /></clipPath><linearGradient
       id="linearGradient48"
       spreadMethod="pad"
       gradientTransform="matrix(-173.57072,-984.36847,-984.36847,173.57072,664.06213,1256.9683)"
       gradientUnits="userSpaceOnUse"
       y2="0"
       x2="1"
       y1="0"
       x1="0"><stop
         id="stop44"
         offset="0"
         style="stop-opacity:1;stop-color:#e29f3b" /><stop
         id="stop46"
         offset="1"
         style="stop-opacity:1;stop-color:#d33929" /></linearGradient><clipPath
       id="clipPath58"
       clipPathUnits="userSpaceOnUse"><path
         id="path56"
         d="M 0,1300 H 1300 V 0 H 0 Z" /></clipPath></defs><g
     transform="matrix(1.3333333,0,0,-1.3333333,0,1733.3333)"
     id="g10"><g
       id="g12"><g
         clip-path="url(#clipPath18)"
         id="g14"><g
           id="g20"><g
             id="g22"><path
               id="path30"
               style="fill:url(#linearGradient28);stroke:none"
               d="m 301.887,1277.158 c -153.535,0 -278,-124.464 -278,-278 v 0 -699 c 0,-153.535 124.465,-278 278,-278 v 0 h 698.999 c 153.536,0 278,124.465 278,278 v 0 699 c 0,153.536 -124.464,278 -278,278 v 0 z" /></g></g></g></g><g
       id="g32"><g
         clip-path="url(#clipPath38)"
         id="g34"><g
           id="g40"><g
             id="g42"><path
               id="path50"
               style="fill:url(#linearGradient48);stroke:none"
               d="m 300.886,1277.252 c -153.54,0 -277.999,-124.46 -277.999,-278 v 0 -316.409 L 151.746,544.132 c 0,0 0.01,0 0.01,-0.01 v 0 c 1.291,-2.28 167.901,-293.79 518.541,-293.79 v 0 c 158.409,0 204.439,81.23 282.969,81.23 v 0 c 81.231,0 129.97,-81.23 129.97,-81.23 v 0 c 47.391,116.44 -70.399,249.12 -70.399,249.12 v 0 c 0,0 134.039,310.03 -280.241,591.64 v 0 c -0.01,0.01 -0.01,0.02 -0.019,0.02 v 0 l -183.551,186.14 z" /></g></g></g></g><g
       id="g52"><g
         clip-path="url(#clipPath58)"
         id="g54"><g
           transform="translate(733.5743,1091.017)"
           id="g60"><path
             id="path62"
             style="fill:#ffffff;fill-opacity:1;fill-rule:nonzero;stroke:none"
             d="m 0,0 c 414.297,-281.614 280.26,-591.66 280.26,-591.66 0,0 117.79,-132.683 70.403,-249.12 0,0 -48.74,81.235 -129.975,81.235 -78.527,0 -124.56,-81.235 -282.968,-81.235 -352.017,0 -518.549,293.799 -518.549,293.799 316.959,-208.859 533.442,-60.926 533.442,-60.926 -142.986,83.056 -446.791,479.285 -446.791,479.285 264.807,-225.238 379.095,-284.321 379.095,-284.321 -68.417,56.334 -259.951,331.708 -259.951,331.708 C -221.781,-236.296 82.589,-452.207 82.589,-452.207 169.407,-213.541 0,0 0,0" /></g></g></g></g></svg>