<svg width="85" height="85" viewBox="0 0 85 85" fill="none" xmlns="http://www.w3.org/2000/svg">
<rect x="4" y="4" width="77" height="77" stroke="black" stroke-opacity="0.85" stroke-width="8"/>
<path d="M11.4434 23.9648H8.10352V33H1.93359V7.40625H12.0059C15.041 7.40625 17.4141 8.08008 19.125 9.42773C20.8359 10.7754 21.6914 12.6797 21.6914 15.1406C21.6914 16.9219 21.3281 18.3984 20.6016 19.5703C19.8867 20.7422 18.7617 21.6914 17.2266 22.418L22.5703 32.7363V33H15.9609L11.4434 23.9648ZM8.10352 19.2012H12.0059C13.1777 19.2012 14.0566 18.8965 14.6426 18.2871C15.2402 17.666 15.5391 16.8047 15.5391 15.7031C15.5391 14.6016 15.2402 13.7402 14.6426 13.1191C14.0449 12.4863 13.166 12.1699 12.0059 12.1699H8.10352V19.2012ZM46.3711 29.8359C45.4219 30.8906 44.0332 31.7402 42.2051 32.3848C40.377 33.0293 38.373 33.3516 36.1934 33.3516C32.8418 33.3516 30.1641 32.3262 28.1602 30.2754C26.1562 28.2246 25.084 25.3711 24.9434 21.7148L24.9258 19.5C24.9258 16.9805 25.3711 14.7832 26.2617 12.9082C27.1523 11.0215 28.4238 9.57422 30.0762 8.56641C31.7402 7.54688 33.6621 7.03711 35.8418 7.03711C39.0293 7.03711 41.502 7.76953 43.2598 9.23438C45.0293 10.6875 46.0605 12.8613 46.3535 15.7559H40.4121C40.2012 14.3262 39.7441 13.3066 39.041 12.6973C38.3379 12.0879 37.3418 11.7832 36.0527 11.7832C34.5059 11.7832 33.3105 12.4395 32.4668 13.752C31.623 15.0645 31.1953 16.9395 31.1836 19.377V20.9238C31.1836 23.4785 31.6172 25.4004 32.4844 26.6895C33.3633 27.9668 34.7402 28.6055 36.6152 28.6055C38.2207 28.6055 39.416 28.248 40.2012 27.5332V23.5605H35.9121V19.3242H46.3711V29.8359Z" transform="translate(24 38)" fill="black" fill-opacity="0.85"/>
</svg>
